<?xml version="1.0" encoding="utf-8"?>
<!-- Generator: Adobe Illustrator 23.0.0, SVG Export Plug-In . SVG Version: 6.00 Build 0)  -->
<svg version="1.1" id="Layer_1" xmlns="http://www.w3.org/2000/svg" xmlns:xlink="http://www.w3.org/1999/xlink" x="0px" y="0px"
	 viewBox="0 0 550.13 666.29" style="enable-background:new 0 0 550.13 666.29;" xml:space="preserve">
<style type="text/css">
	.st0{fill-rule:evenodd;clip-rule:evenodd;fill:#00B1D4;}
	.st1{fill-rule:evenodd;clip-rule:evenodd;fill:#BCBEC0;}
	.st2{fill:#00B1D4;}
</style>
<g>
	<g>
		<path class="st0" d="M247.79,325.78c95.26,0,172.48,15.49,172.48,34.59c0,19.1-77.22,34.59-172.48,34.59
			c-95.26,0-172.48-15.49-172.48-34.59C75.31,341.27,152.53,325.78,247.79,325.78L247.79,325.78z M242.99,327.65
			c-88.24,0-159.76,12.96-159.76,28.94c0,15.98,71.53,28.94,159.76,28.94c88.23,0,159.76-12.96,159.76-28.94
			C402.75,340.6,331.22,327.65,242.99,327.65z"/>
		<path class="st1" d="M247.37,349.25c59.56,0,111.76,6.6,140.82,16.51c-29.06,9.9-81.25,16.51-140.82,16.51
			c-59.56,0-111.76-6.6-140.82-16.51C135.61,355.86,187.81,349.25,247.37,349.25z"/>
	</g>
	<path class="st2" d="M498.79,435.2c-0.27-1.67-0.3-3.35-0.76-5.06c-0.87-3.39-2.36-6.81-4.75-9.59c-2.4-2.74-5.4-4.91-8.56-6.12
		c-3.12-1.41-6.31-2.05-9.43-2.4c-6.28-0.61-12.32-0.08-18.18,0.91c-10.54,1.98-20.66,5.25-30.2,9.62
		c-0.02,0.01-0.04,0.02-0.05,0.03c2.65-22.39,0.54-45.63-8.64-66.01c3.54,11.29,5.17,23.02,5.33,34.69
		c0.37,11.67-0.86,23.31-3.03,34.69c-2.3,11.37-5.6,22.53-10.05,33.23c-4.41,10.71-9.52,21.17-15.76,30.98
		c-6.08,9.89-12.74,19.47-20.2,28.45c-1.66,2.13-3.38,4.21-5.12,6.26l-0.45,0.55c-5.68,6.64-11.76,12.96-17.8,19.31
		c-16.56,16.59-34.52,31.9-53.18,46.47c20.33-12.13,39.75-26.03,57.29-42.19c7.92-7.31,15.47-15.06,22.56-23.24c0,0,0,0,0,0
		c11.64-0.23,23.32-1.48,34.88-3.73c11.6-2.21,23.01-5.9,33.93-10.99c10.92-5.14,21.07-12.25,29.67-21.11
		c8.33-9.02,14.8-20.27,18.56-31.61c1.86-5.78,3.46-11.75,3.92-18.22C498.79,438.51,498.86,436.87,498.79,435.2z M488.78,439.34
		c-0.61,5.06-2.17,10.27-4.11,15.37c-3.88,10.46-9.28,19.55-16.7,27.43c-7.38,7.87-16.36,14.26-26.17,19.32
		c-9.78,5.17-20.35,8.9-31.23,11.98c-8.93,2.43-18.06,4.37-27.33,5.85c6.48-7.98,12.52-16.35,17.93-25.14
		c12.49-20.49,21.66-43.32,25.15-67.19c0.18-1.21,0.28-2.44,0.43-3.66c0.02,0,0.04-0.01,0.06-0.01c10.31-2.36,20.66-4.26,30.93-4.79
		c5.59-0.27,11.18-0.15,16.36,0.91c5.14,1.1,9.78,3.23,12.21,6.69C488.71,429.57,489.35,434.28,488.78,439.34z"/>
	<path class="st2" d="M391.93,548.62c3.89,4.53,6.68,10.27,7.21,16.5c0.39,3.11-0.11,6.28-0.92,9.34c-1,2.99-2.39,5.92-4.32,8.42
		c-3.83,5.03-8.79,9.1-14.13,12.16c-2.59,1.74-5.45,2.87-8.18,4.31c-2.81,1.21-5.66,2.33-8.51,3.47c-23.1,8.13-47.3,11-71.26,12.89
		c-24.03,1.6-48.07,1.62-72.04,0.6c-23.97-0.84-47.85-3.26-71.62-6.18c12-0.2,23.94,0.33,35.91,0.15l17.92,0.14l17.91-0.04
		c23.86-0.19,47.69-0.54,71.39-2.25c5.92-0.42,11.85-0.77,17.74-1.47l8.84-0.94l8.79-1.21c11.69-1.68,23.33-3.88,34.53-7.29
		c2.75-0.95,5.52-1.89,8.26-2.9c2.61-1.23,5.41-2.18,7.9-3.61c5.22-2.51,9.9-5.94,13.66-10.13c3.79-4.16,6.21-9.58,6.14-15.36
		C397.15,559.46,395.17,553.62,391.93,548.62z"/>
	<path class="st1" d="M199.63,29.3c57.31,24.68,72.2,79.38,38.18,130.24c-46.57,69.61-21.2,73.6,4.65,146.82
		c-72.35-76.09-71.89-92.04-22.13-170.48C251.84,86.19,227.11,65.55,199.63,29.3z"/>
	<path class="st1" d="M258.38,303.78c-32.79-38.54-61.78-111.11-7.38-127c45.47-13.28,65.37,54.13,16.82,53.88
		c18.36-14.86,12.52-37.68-8.59-30.62C228.69,210.25,245.28,263.99,258.38,303.78z"/>
</g>
</svg>
