<?xml version="1.0" encoding="utf-8"?>
<!-- Generator: Adobe Illustrator 16.0.0, SVG Export Plug-In . SVG Version: 6.00 Build 0)  -->
<!DOCTYPE svg PUBLIC "-//W3C//DTD SVG 1.1//EN" "http://www.w3.org/Graphics/SVG/1.1/DTD/svg11.dtd">
<svg version="1.1" id="Ebene_1" xmlns="http://www.w3.org/2000/svg" xmlns:xlink="http://www.w3.org/1999/xlink" x="0px" y="0px"
	 width="232px" height="74px" viewBox="0 0 232 74" enable-background="new 0 0 232 74" xml:space="preserve">
<g>
	<polyline fill="#636362" points="104.245,52.123 125.702,52.123 125.702,45.217 112.488,45.217 112.488,25.237 104.245,25.237 
		104.245,52.123 	"/>
	<path fill="#636362" d="M136.986,35.272h-7.129v16.812h7.129V35.272L136.986,35.272z M142.297,52.084h7.131v-9.543
		c0-2.709,1.819-4.121,4.867-4.121h1.631c3.119,0,4.605,0.928,4.605,2.785v10.879h7.13V41.205c0-8.17-6.164-8.356-10.583-8.356
		c-3.825,0-6.313,0.706-7.577,3.342h-0.073v-3.044h-7.131V52.084L142.297,52.084z M172.562,52.084h7.131V44.51h1.41l7.613,7.574
		h9.097l-10.657-10.062l9.507-8.875h-9.356l-6.277,6.239h-1.336V25.199h-7.131V52.084L172.562,52.084z"/>
	<path fill="#70992E" d="M1.901,52.123h9.211l2.413-4.752h16.711l2.562,4.752h9.173l-14.78-26.886H16.459L1.901,52.123
		 M21.807,31.476l5.347,10.1H16.608L21.807,31.476L21.807,31.476z M51.701,41.727c0-2.861,1.484-3.491,4.307-3.491h3.75
		c3.418,0,3.752,1.185,3.752,3.304v2.23c0,2.114-0.334,3.303-3.752,3.303h-3.75c-2.823,0-4.307-0.63-4.307-3.49V41.727
		L51.701,41.727z M44.57,58.733h7.13v-9.878h0.074c1.598,3.008,3.008,3.564,7.056,3.564h1.448c9.024,0,10.138-3.23,10.138-8.059
		v-3.415c0-4.828-1.114-8.059-10.138-8.059h-2.042c-4.16,0-5.792,1.448-6.684,3.119h-0.075v-2.822H44.57V58.733L44.57,58.733z
		 M81.965,41.727c0-2.861,1.485-3.491,4.308-3.491h3.751c3.417,0,3.75,1.185,3.75,3.304v2.23c0,2.114-0.333,3.303-3.75,3.303h-3.751
		c-2.823,0-4.308-0.63-4.308-3.49V41.727L81.965,41.727z M74.836,58.733h7.129v-9.878h0.075c1.597,3.008,3.008,3.564,7.056,3.564
		h1.449c9.022,0,10.137-3.23,10.137-8.059v-3.415c0-4.828-1.114-8.059-10.137-8.059h-2.044c-4.16,0-5.793,1.448-6.685,3.119h-0.073
		v-2.822h-6.908V58.733L74.836,58.733z"/>
	<path fill="#FFFFFF" d="M108.072,23.463c0.733,3.511,2.501,6.562,5.208,8.476l1.104-1.563c-2.235-1.577-3.785-4.169-4.439-7.303
		L108.072,23.463L108.072,23.463z"/>
	<path fill="#FFFFFF" d="M129.599,35.829c0,0,1.272,0.724,3.869,0.724c2.337,0,3.658-0.767,3.658-0.767"/>
	<path fill="#FFFFFF" d="M129.041,36.807c0.14,0.082,1.621,0.872,4.427,0.871c2.456-0.001,3.944-0.764,4.192-0.901l0.012-0.007
		l-1.094-1.967l-0.008,0.005c-0.005,0.002-1.119,0.619-3.103,0.619c-1.193,0-2.056-0.167-2.604-0.319
		c-0.275-0.078-0.469-0.152-0.588-0.202l-0.118-0.055l-0.02-0.008l-0.237,0.446l0.251-0.439l-0.014-0.007l-0.237,0.446l0.251-0.439
		L129.041,36.807L129.041,36.807z"/>
	<path fill="#6F6F6E" d="M105.797,59.803h-0.843v7.506h0.843V59.803L105.797,59.803z M110.164,60.592h2.43v-0.789h-5.715v0.789
		h2.441v6.717h0.844V60.592L110.164,60.592z M125.017,59.803h-1.483l-1.994,4.863c-0.426,1.045-0.246,0.606-0.527,1.305
		l-0.057,0.123l-0.045,0.137h-0.022c-0.418-1.035-0.203-0.53-0.63-1.564l-2.004-4.863h-1.461v7.506h0.842v-6.01V60.68l-0.012-0.066
		v-0.136h0.021l0.068,0.168l0.023,0.069c0.056,0.146,0,0,0.191,0.461l2.556,6.133h0.854l2.556-6.209
		c0.146-0.361,0.136-0.328,0.27-0.701h0.023v0.079v0.081l-0.013,0.066v0.226v0.448v6.01h0.843V59.803L125.017,59.803z
		 M127.514,63.529V63.37c0-0.618,0.306-0.799,1.375-0.799c1.158,0,1.375,0.215,1.375,1.442v0.629l-0.025,0.012
		c-0.101-0.203-0.18-0.281-0.359-0.349c-0.304-0.124-0.766-0.191-1.293-0.191c-0.767,0-1.273,0.101-1.564,0.314
		c-0.293,0.214-0.484,0.754-0.484,1.363c0,1.181,0.518,1.597,1.98,1.597c1.023,0,1.464-0.157,1.789-0.653l0.012,0.013l-0.055,0.561
		h0.762v-3.465c0-1.473-0.47-1.867-2.228-1.867c-1.63,0-2.026,0.303-2.046,1.553H127.514L127.514,63.529z M128.754,64.733
		c1.216,0,1.541,0.212,1.541,1.034c0,0.326-0.066,0.541-0.225,0.665c-0.225,0.192-0.721,0.303-1.338,0.303
		c-1.15,0-1.398-0.18-1.398-1.035c0-0.395,0.057-0.62,0.191-0.731C127.719,64.812,128.112,64.733,128.754,64.733L128.754,64.733z
		 M132.771,62.055v5.254h0.799v-3.161c0-1.093,0.448-1.519,1.609-1.519c0.629,0,0.947,0.111,1.104,0.381
		c0.111,0.191,0.135,0.36,0.135,0.947v3.352h0.762v-3.42c0-0.688-0.031-0.979-0.154-1.205c-0.248-0.472-0.846-0.707-1.758-0.707
		c-0.381,0-0.729,0.045-0.99,0.146c-0.406,0.136-0.574,0.291-0.742,0.664l-0.012-0.012l0.012-0.72H132.771L132.771,62.055z
		 M139.668,63.529V63.37c0-0.618,0.305-0.799,1.375-0.799c1.158,0,1.373,0.215,1.373,1.442v0.629l-0.021,0.012
		c-0.102-0.203-0.182-0.281-0.361-0.349c-0.303-0.124-0.766-0.191-1.295-0.191c-0.766,0-1.272,0.101-1.562,0.314
		c-0.294,0.214-0.485,0.754-0.485,1.363c0,1.181,0.517,1.597,1.979,1.597c1.025,0,1.464-0.157,1.79-0.653l0.013,0.013l-0.057,0.561
		h0.764v-3.465c0-1.473-0.472-1.867-2.227-1.867c-1.633,0-2.027,0.303-2.049,1.553H139.668L139.668,63.529z M140.907,64.733
		c1.216,0,1.542,0.212,1.542,1.034c0,0.326-0.066,0.541-0.225,0.665c-0.225,0.192-0.721,0.303-1.34,0.303
		c-1.148,0-1.396-0.18-1.396-1.035c0-0.395,0.057-0.62,0.191-0.731C139.871,64.812,140.266,64.733,140.907,64.733L140.907,64.733z
		 M149.312,62.055h-0.762l0.032,0.708l-0.01,0.012c-0.283-0.572-0.756-0.798-1.688-0.798c-0.757,0-1.296,0.18-1.612,0.538
		c-0.371,0.417-0.493,0.957-0.493,2.207c0,1.284,0.122,1.79,0.539,2.194c0.326,0.315,0.833,0.473,1.497,0.473
		c0.542,0,0.889-0.057,1.205-0.191c0.27-0.125,0.395-0.248,0.507-0.54h0.023v1.058c0,1.012-0.317,1.283-1.487,1.283
		c-1.138,0-1.328-0.156-1.351-1.068h-0.731c0,0.549,0.046,0.787,0.17,1.036c0.236,0.472,0.809,0.683,1.856,0.683
		c1.091,0,1.699-0.203,2.034-0.683c0.191-0.294,0.271-0.644,0.271-1.319V62.055L149.312,62.055z M147.027,62.629
		c1.217,0,1.499,0.348,1.499,1.924c0,1.79-0.271,2.183-1.509,2.183c-0.54,0-0.945-0.11-1.127-0.313
		c-0.225-0.248-0.314-0.757-0.314-1.756c0-1.037,0.067-1.443,0.305-1.712C146.072,62.74,146.465,62.629,147.027,62.629
		L147.027,62.629z M154.624,65.721c0,0.904-0.157,1.015-1.473,1.015c-1.318,0-1.508-0.247-1.521-1.912h3.783v-0.404
		c0-0.632-0.047-1.083-0.137-1.364c-0.248-0.843-0.743-1.078-2.217-1.078c-1.766,0-2.238,0.561-2.238,2.645
		c0,2.271,0.415,2.768,2.363,2.768c1.664,0,2.238-0.372,2.238-1.477c0-0.02,0-0.109-0.01-0.191H154.624L154.624,65.721z
		 M151.644,64.228c-0.013-1.351,0.247-1.634,1.497-1.634c1.204,0,1.439,0.192,1.474,1.229c0.01,0.101,0.01-0.023,0.01,0.405H151.644
		L151.644,64.228z M156.943,62.055v5.254h0.764v-2.98c0-1.239,0.428-1.699,1.576-1.699c0.789,0,1.115,0.225,1.149,0.764
		c0.011,0.115,0,0.079,0.022,0.484v3.432h0.764v-3.035c0-0.51,0.033-0.791,0.113-1.004c0.166-0.416,0.686-0.641,1.451-0.641
		c0.924,0,1.184,0.259,1.184,1.17v3.51h0.764v-3.432c0-1.395-0.496-1.9-1.857-1.9c-0.936,0-1.463,0.258-1.812,0.887h-0.01
		c-0.191-0.596-0.743-0.887-1.621-0.887c-0.912,0-1.405,0.258-1.723,0.887l-0.021-0.01l0.021-0.799H156.943L156.943,62.055z
		 M170.199,65.721c0,0.904-0.158,1.015-1.475,1.015s-1.508-0.247-1.518-1.912h3.779v-0.404c0-0.632-0.046-1.083-0.137-1.364
		c-0.244-0.843-0.74-1.078-2.214-1.078c-1.767,0-2.239,0.561-2.239,2.645c0,2.271,0.416,2.768,2.361,2.768
		c1.666,0,2.24-0.372,2.24-1.477c0-0.02,0-0.109-0.012-0.191H170.199L170.199,65.721z M167.217,64.228
		c-0.01-1.351,0.248-1.634,1.496-1.634c1.205,0,1.441,0.192,1.476,1.229c0.011,0.101,0.011-0.023,0.011,0.405H167.217
		L167.217,64.228z M172.519,62.055v5.254h0.796v-3.161c0-1.093,0.453-1.519,1.611-1.519c0.631,0,0.945,0.111,1.102,0.381
		c0.115,0.191,0.137,0.36,0.137,0.947v3.352h0.766v-3.42c0-0.688-0.035-0.979-0.159-1.205c-0.245-0.472-0.843-0.707-1.754-0.707
		c-0.383,0-0.733,0.045-0.993,0.146c-0.402,0.136-0.573,0.291-0.742,0.664l-0.01-0.012l0.01-0.72H172.519L172.519,62.055z
		 M181.417,62.055h-2.024v-1.26h-0.766v1.26h-0.729v0.641h0.729v3.217c0,0.465,0.014,0.586,0.069,0.768
		c0.157,0.496,0.594,0.709,1.451,0.709c1.024,0,1.472-0.473,1.472-1.543c0-0.078,0-0.234-0.009-0.393h-0.708
		c0.01,0.124,0.01,0.226,0.01,0.281c0,0.812-0.146,1.001-0.753,1.001c-0.622,0-0.767-0.155-0.767-0.823v-3.217h2.024V62.055
		L181.417,62.055z M190.926,61.84c0-0.707-0.055-1.023-0.235-1.34c-0.337-0.604-0.888-0.773-2.476-0.773
		c-2.205,0-2.767,0.426-2.767,2.137c0,1.338,0.507,1.879,1.89,1.969c1.113,0.059,0.551,0.034,1.711,0.091
		c0.203,0.021,0.393,0.034,0.551,0.067c0.451,0.102,0.619,0.404,0.619,1.127c0,1.406-0.18,1.54-2.105,1.54
		c-0.933,0-1.25-0.032-1.453-0.18c-0.312-0.202-0.415-0.519-0.415-1.306v-0.179h-0.843v0.225c0.01,0.313,0.023,0.474,0.046,0.675
		c0.102,0.721,0.404,1.136,0.99,1.349c0.349,0.122,0.651,0.147,1.663,0.147c1.621,0,2.175-0.127,2.577-0.572
		c0.259-0.293,0.383-0.811,0.383-1.621c0-0.879-0.136-1.339-0.505-1.655c-0.338-0.292-0.754-0.371-2.173-0.44
		c-0.462-0.021-0.799-0.031-0.888-0.045c-0.272-0.01-0.485-0.043-0.633-0.101c-0.425-0.147-0.572-0.472-0.572-1.226
		c0-0.52,0.134-0.878,0.395-1.049c0.279-0.18,0.619-0.224,1.687-0.224c0.968,0,1.328,0.089,1.531,0.395
		c0.136,0.201,0.18,0.415,0.18,0.989H190.926L190.926,61.84z M194.54,61.977c-1.948,0-2.329,0.449-2.329,2.701
		c0,2.261,0.381,2.711,2.329,2.711c1.936,0,2.314-0.45,2.314-2.711C196.854,62.426,196.476,61.977,194.54,61.977L194.54,61.977z
		 M194.54,62.629c1.373,0,1.521,0.201,1.521,2.049c0,1.855-0.147,2.058-1.521,2.058c-1.384,0-1.53-0.202-1.53-2.058
		C193.01,62.83,193.156,62.629,194.54,62.629L194.54,62.629z M199.131,59.803h-0.764v7.506h0.764V59.803L199.131,59.803z
		 M205.082,62.055h-0.764v3.016c0,1.272-0.381,1.665-1.586,1.665c-0.936,0-1.172-0.237-1.172-1.181v-3.5h-0.764v3.5
		c0,1.304,0.527,1.834,1.836,1.834c0.889,0,1.461-0.26,1.721-0.787l0.023,0.023l-0.059,0.684h0.764V62.055L205.082,62.055z
		 M209.607,62.055h-2.027v-1.26h-0.764v1.26h-0.729v0.641h0.729v3.217c0,0.465,0.012,0.586,0.068,0.768
		c0.158,0.496,0.596,0.709,1.451,0.709c1.023,0,1.475-0.473,1.475-1.543c0-0.078,0-0.234-0.012-0.393h-0.709
		c0.012,0.124,0.012,0.226,0.012,0.281c0,0.812-0.146,1.001-0.754,1.001c-0.621,0-0.768-0.155-0.768-0.823v-3.217h2.027V62.055
		L209.607,62.055z M211.566,59.803h-0.768v0.866h0.768V59.803L211.566,59.803z M211.566,62.053h-0.768v5.256h0.768V62.053
		L211.566,62.053z M215.414,61.977c-1.945,0-2.326,0.449-2.326,2.701c0,2.261,0.381,2.711,2.326,2.711
		c1.938,0,2.318-0.45,2.318-2.711C217.732,62.426,217.352,61.977,215.414,61.977L215.414,61.977z M215.414,62.629
		c1.373,0,1.521,0.201,1.521,2.049c0,1.855-0.148,2.058-1.521,2.058c-1.383,0-1.531-0.202-1.531-2.058
		C213.883,62.83,214.031,62.629,215.414,62.629L215.414,62.629z M219.24,62.055v5.254h0.799v-3.161c0-1.093,0.449-1.519,1.609-1.519
		c0.631,0,0.945,0.111,1.105,0.381c0.109,0.191,0.133,0.36,0.133,0.947v3.352h0.764v-3.42c0-0.688-0.033-0.979-0.156-1.205
		c-0.248-0.472-0.844-0.707-1.758-0.707c-0.381,0-0.729,0.045-0.988,0.146c-0.404,0.136-0.574,0.291-0.744,0.664l-0.012-0.012
		l0.012-0.72H219.24L219.24,62.055z M229.412,63.426v-0.191c0-0.943-0.527-1.258-2.082-1.258c-1.732,0-2.172,0.303-2.172,1.475
		c0,1.102,0.338,1.406,1.666,1.484c0.484,0.021,1.037,0.045,1.203,0.055c0.609,0,0.756,0.17,0.756,0.836
		c0,0.775-0.279,0.945-1.562,0.945c-0.498,0-0.893-0.057-1.025-0.146c-0.191-0.113-0.305-0.395-0.305-0.744
		c0-0.041,0-0.146,0.01-0.248h-0.787c-0.01,0.113-0.01,0.237-0.01,0.279c0,0.531,0.148,0.904,0.439,1.116
		c0.369,0.28,0.773,0.36,1.822,0.36c0.969,0,1.475-0.1,1.789-0.372c0.27-0.233,0.414-0.65,0.414-1.177
		c0-0.467-0.09-0.813-0.279-1.062c-0.213-0.291-0.539-0.416-1.158-0.449l-0.258-0.012l-0.27-0.011
		c-0.35-0.011-0.191-0.011-0.477-0.022c-0.617-0.035-0.596-0.035-0.742-0.058c-0.336-0.056-0.449-0.269-0.449-0.821
		c0-0.697,0.178-0.811,1.328-0.811c1.262,0,1.359,0.066,1.383,0.832H229.412L229.412,63.426z"/>
	<path fill="#70992E" d="M128.545,24.876c0.543-2.23,0.247-4.522-0.724-6.483c-0.972-1.962-2.638-3.61-4.809-4.531
		c-2.413-1.025-5.032-0.976-7.284-0.064c-2.253,0.909-4.172,2.694-5.196,5.107c-1.025,2.413-0.976,5.034-0.064,7.285
		c0.908,2.253,2.693,4.172,5.106,5.195c1.162,0.497,2.283,0.728,3.32,0.77c1.042,0.043,1.97-0.081,2.859-0.209
		c0.752-0.111,1.484-0.288,2.053-0.438c0.567-0.15,0.962-0.274,0.982-0.281l-1.25-3.97l-0.01,0.003
		c-0.061,0.019-0.418,0.127-0.881,0.249c-0.461,0.12-1.039,0.252-1.498,0.318c-0.841,0.125-1.494,0.197-2.078,0.17
		c-0.586-0.029-1.129-0.132-1.872-0.443c-1.366-0.581-2.353-1.646-2.871-2.923c-0.514-1.279-0.544-2.73,0.035-4.099
		c0.582-1.367,1.647-2.354,2.925-2.873c1.276-0.514,2.729-0.543,4.099,0.036c1.23,0.523,2.151,1.438,2.703,2.546
		c0.55,1.11,0.714,2.397,0.409,3.646L128.545,24.876L128.545,24.876"/>
	<path fill="#B6B3B5" d="M130.277,22.122c-0.491,0-0.988-0.037-1.483-0.116c-0.083-1.262-0.419-2.49-0.973-3.61l0.368-0.864
		c0.686,0.291,1.392,0.429,2.086,0.429c0.693,0,1.373-0.137,2.013-0.393c1.275-0.519,2.341-1.505,2.922-2.872
		c0.58-1.369,0.551-2.822,0.034-4.099c-0.517-1.277-1.504-2.342-2.871-2.923c-0.687-0.291-1.393-0.428-2.088-0.428
		c-0.692,0-1.373,0.135-2.012,0.392c-1.275,0.519-2.342,1.505-2.922,2.872c-0.58,1.368-0.551,2.822-0.036,4.1
		c0.215,0.526,0.508,1.017,0.873,1.452c-0.872-0.917-1.942-1.675-3.176-2.198c-0.729-0.311-1.479-0.522-2.233-0.642
		c-0.093-1.44,0.139-2.925,0.74-4.338c1.023-2.414,2.943-4.198,5.195-5.106c1.122-0.455,2.334-0.694,3.568-0.694
		c1.242,0,2.507,0.243,3.719,0.758c2.412,1.024,4.197,2.943,5.105,5.197c0.909,2.25,0.961,4.871-0.065,7.284
		c-1.022,2.414-2.942,4.198-5.195,5.106C132.725,21.882,131.511,22.122,130.277,22.122 M123.384,19.164
		c-0.095-0.099-0.185-0.198-0.273-0.299C123.204,18.961,123.297,19.061,123.384,19.164 M127.821,18.396c0-0.001,0-0.002,0-0.002
		c-0.359-0.728-0.813-1.411-1.355-2.03c0.478,0.484,1.054,0.884,1.724,1.168L127.821,18.396"/>
	<path fill="#9DA192" d="M128.794,22.005c-0.752-0.119-1.505-0.332-2.232-0.642l0.813-1.917l0.446-1.052
		C128.375,19.516,128.711,20.744,128.794,22.005 M126.562,21.364c-1.235-0.523-2.307-1.282-3.178-2.2
		c-0.087-0.104-0.18-0.203-0.273-0.299c-0.705-0.805-1.26-1.72-1.654-2.697c-0.379-0.933-0.608-1.929-0.677-2.946
		c0.754,0.119,1.504,0.331,2.233,0.642c1.233,0.522,2.304,1.28,3.176,2.198c0.089,0.104,0.181,0.205,0.277,0.303
		c0.542,0.619,0.996,1.303,1.355,2.03c0,0,0,0.001,0,0.002l-0.446,1.052L126.562,21.364"/>
	<path fill="#636362" d="M133.083,17.378c1.753-0.058,3.482,0.377,4.993,1.242c1.51,0.863,2.807,2.166,3.667,3.819
		c1.195,2.298,1.352,4.884,0.626,7.173c-0.719,2.291-2.327,4.32-4.629,5.516c-2.297,1.197-4.884,1.352-7.172,0.628
		c-2.289-0.72-4.32-2.33-5.517-4.628c-1.102-2.113-1.319-4.474-0.783-6.618l4.039,1.008c-0.298,1.204-0.181,2.498,0.438,3.687
		c0.672,1.29,1.788,2.174,3.075,2.58c1.286,0.404,2.705,0.322,3.997-0.35c1.29-0.671,2.174-1.788,2.582-3.074
		c0.4-1.287,0.32-2.708-0.35-3.999c-0.486-0.931-1.199-1.643-2.043-2.127c-0.843-0.482-1.812-0.726-2.789-0.694L133.083,17.378
		L133.083,17.378z"/>
	<path fill="#FFFFFF" d="M123.312,27.024c0,0-0.134,0.583,0.328,2.21c0.463,1.625,0.877,2.248,0.877,2.248"/>
	<path fill="#FFFFFF" d="M122.79,26.904c-0.026,0.12-0.144,0.794,0.335,2.476c0.476,1.672,0.91,2.348,0.944,2.399l0.893-0.591
		l-0.104,0.068l0.104-0.066l-0.001-0.003l-0.104,0.069l0.104-0.066c-0.016-0.026-0.387-0.622-0.808-2.102
		c-0.224-0.785-0.298-1.301-0.319-1.607c-0.01-0.152-0.008-0.252-0.004-0.305l0.004-0.048h-0.002h0.002l0,0h-0.002h0.002
		l-0.361-0.067l0.359,0.081l0.002-0.014l-0.361-0.067l0.359,0.081L122.79,26.904L122.79,26.904z"/>
	<polyline fill="#FFFFFF" points="123.662,24.625 128.705,25.833 128.982,24.677 123.939,23.467 	"/>
</g>
</svg>
